<?xml version="1.0" standalone="no"?>
<!DOCTYPE svg PUBLIC "-//W3C//DTD SVG 20010904//EN"
 "http://www.w3.org/TR/2001/REC-SVG-20010904/DTD/svg10.dtd">
<svg version="1.0" xmlns="http://www.w3.org/2000/svg"
 width="260.000000pt" height="260.000000pt" viewBox="0 0 260.000000 260.000000"
 preserveAspectRatio="xMidYMid meet">
<metadata>
Created by potrace 1.11, written by Peter Selinger 2001-2013
</metadata>
<g transform="translate(0.000000,260.000000) scale(0.100000,-0.100000)"
fill="#000000" stroke="none">
<path d="M536 2261 c-4 -5 -22 -8 -42 -6 -33 2 -35 0 -31 -21 2 -12 1 -28 -4
-35 -4 -7 -3 -22 1 -34 5 -14 4 -27 -3 -34 -8 -8 -8 -11 1 -11 9 0 10 -5 3
-17 -11 -22 -11 -31 -1 -59 5 -13 4 -26 -3 -33 -8 -8 -8 -11 1 -11 9 0 10 -5
3 -17 -11 -22 -11 -31 -1 -59 5 -13 4 -26 -3 -33 -8 -8 -8 -11 1 -11 9 0 10
-6 4 -17 -9 -19 -8 -101 2 -110 3 -4 1 -12 -5 -20 -9 -10 -8 -13 0 -13 7 0 9
-5 5 -12 -10 -16 -11 -88 -1 -88 4 0 5 -5 2 -10 -4 -6 -12 -7 -18 -3 -7 3 -3
-3 7 -15 17 -20 15 -27 -6 -23 -16 2 -7 -18 9 -21 15 -3 15 -4 -1 -20 -13 -13
-14 -18 -4 -18 14 0 17 -37 4 -58 -4 -7 -2 -12 4 -12 7 0 7 -7 -1 -22 -7 -13
-11 -25 -9 -28 11 -19 18 -49 12 -54 -10 -11 -9 -46 2 -46 6 0 5 -4 -3 -9 -8
-5 -9 -11 -3 -15 6 -3 8 -15 5 -27 -4 -16 -8 -17 -14 -7 -7 10 -9 10 -9 0 0
-7 6 -15 14 -18 14 -5 16 -28 3 -40 -4 -4 -3 -12 2 -18 5 -6 11 -40 12 -76 2
-36 7 -71 12 -77 6 -9 5 -19 -4 -30 -8 -9 -9 -14 -3 -10 7 4 14 -4 17 -21 3
-15 9 -36 13 -46 5 -14 4 -17 -4 -12 -7 4 -12 3 -12 -2 0 -6 7 -13 16 -16 14
-5 14 -9 3 -23 -10 -12 -10 -15 -1 -9 8 5 14 -2 18 -24 4 -17 10 -33 15 -36 4
-2 5 -12 2 -21 -5 -12 -3 -14 7 -8 8 5 11 3 8 -6 -3 -8 5 -29 18 -48 13 -19
21 -38 19 -42 -3 -4 2 -10 11 -13 10 -4 14 -13 10 -28 -3 -13 -3 -17 0 -10 9
18 25 15 22 -5 -2 -10 3 -18 12 -18 9 0 15 -9 14 -22 0 -12 3 -20 7 -17 16 10
40 -9 36 -28 -4 -16 -3 -17 9 -7 11 9 16 7 23 -12 6 -14 10 -17 11 -9 0 11 6
9 19 -7 11 -13 26 -23 35 -23 8 0 18 -5 22 -12 5 -7 3 -8 -6 -3 -9 5 -11 4 -6
-4 4 -6 12 -9 17 -5 6 3 27 -2 47 -12 36 -17 44 -20 77 -27 8 -2 18 -6 21 -10
4 -4 20 -7 36 -7 17 0 27 -4 23 -10 -3 -5 -1 -10 4 -10 6 0 11 6 11 13 0 8 4
7 10 -3 5 -8 10 -11 10 -6 0 5 8 2 17 -5 12 -10 15 -11 9 -1 -6 10 -1 11 21 5
15 -4 40 -7 55 -6 17 0 25 -3 21 -10 -4 -6 -1 -7 8 -1 18 11 58 13 64 4 5 -8
56 -4 89 6 10 4 16 2 13 -3 -7 -11 29 -10 39 0 12 12 26 8 18 -5 -6 -10 -4
-10 7 0 17 16 32 16 24 -1 -4 -6 0 -4 8 5 12 16 15 16 29 2 12 -12 17 -13 23
-3 5 7 4 10 -3 5 -6 -3 -13 -2 -16 3 -3 5 3 11 14 14 11 3 20 0 20 -6 0 -8 4
-7 12 1 16 16 33 15 22 -1 -5 -7 -2 -5 7 5 9 9 19 15 22 12 3 -3 15 -1 26 6
16 8 21 8 21 -2 0 -6 7 -3 15 8 8 10 15 15 15 10 0 -5 7 -2 17 5 12 10 17 11
20 2 3 -8 11 -5 25 9 16 16 22 18 29 7 7 -11 9 -10 9 4 0 9 5 17 11 17 6 0 23
9 37 19 15 10 29 19 32 19 17 1 58 26 54 33 -3 5 2 9 11 9 8 0 19 8 22 17 8
22 35 43 45 37 4 -3 6 1 3 8 -3 7 6 25 19 39 14 15 22 30 19 33 -4 3 -1 6 5 6
7 0 12 6 12 14 0 8 5 18 12 22 6 4 8 3 4 -4 -3 -6 -2 -13 3 -17 6 -3 8 4 6 15
-2 12 1 33 7 48 6 15 10 31 9 36 -1 5 5 6 14 3 8 -4 15 -2 15 3 0 6 -4 10 -9
10 -6 0 -3 20 6 45 8 25 19 42 24 39 5 -3 9 0 9 5 0 6 -5 11 -11 11 -14 0 -1
62 15 72 7 5 8 8 0 8 -6 0 -11 7 -11 15 0 10 6 13 19 9 10 -3 18 -1 18 5 0 6
-3 10 -7 10 -19 -3 -33 2 -33 12 0 5 4 8 9 5 5 -4 7 4 3 16 -3 14 -1 19 6 14
6 -3 14 -1 18 5 4 7 3 9 -2 6 -6 -3 -16 -2 -24 4 -13 7 -13 9 0 9 13 0 13 1 0
10 -8 5 -10 10 -5 10 6 0 11 9 12 20 1 11 -1 18 -5 16 -18 -11 -3 47 19 71 17
20 18 23 3 10 -24 -20 -41 -23 -27 -5 5 7 9 20 8 28 0 8 6 18 15 22 12 5 10 7
-5 7 -16 1 -20 8 -20 36 0 19 3 35 8 35 4 0 7 -9 7 -19 0 -11 4 -22 9 -25 13
-9 0 42 -15 55 -10 8 -11 16 -3 30 5 11 7 23 4 28 -3 5 3 12 12 14 15 4 14 5
-3 6 -19 1 -22 12 -15 50 1 3 8 -4 17 -15 14 -18 15 -18 4 4 -6 12 -16 22 -23
22 -7 0 -8 3 -2 8 14 10 19 46 6 37 -7 -4 -8 0 -5 10 4 9 13 14 20 11 7 -3 16
-1 19 5 4 5 3 9 -2 8 -25 -4 -39 3 -39 21 0 11 4 20 8 20 4 0 7 6 5 13 -1 6 6
11 15 11 10 -1 15 2 12 8 -3 5 -15 6 -26 2 -16 -5 -18 -3 -12 7 5 8 7 23 5 34
-2 15 0 17 11 7 12 -9 15 -9 15 3 0 8 -3 12 -7 10 -3 -2 -12 0 -20 6 -13 7
-13 9 0 9 13 0 13 1 0 10 -8 5 -10 10 -5 10 6 0 11 9 12 20 1 12 -3 18 -9 14
-7 -5 -7 -1 -1 11 6 10 7 35 2 58 -4 26 -3 44 3 48 5 3 10 10 10 15 0 5 4 8
10 6 5 -1 7 2 3 7 -3 6 -13 7 -23 4 -13 -5 -15 -4 -6 8 5 8 10 21 9 29 0 8 4
18 10 22 6 5 4 8 -6 8 -10 0 -15 8 -13 23 1 12 3 28 3 35 1 7 7 10 14 7 6 -4
5 -1 -4 7 -9 7 -15 21 -13 31 2 16 -3 18 -45 13 -27 -3 -60 -10 -75 -15 -14
-6 -26 -8 -26 -5 0 2 -14 -3 -31 -12 -23 -11 -29 -12 -23 -2 4 7 -2 4 -14 -6
-12 -11 -22 -15 -22 -10 0 5 -4 5 -8 -1 -4 -5 -40 -27 -81 -47 -40 -21 -70
-38 -66 -38 4 0 -4 -9 -18 -20 -28 -22 -42 -26 -31 -8 4 7 3 8 -4 4 -6 -4 -8
-14 -5 -23 5 -12 2 -15 -10 -10 -12 4 -14 2 -10 -10 4 -11 2 -14 -5 -9 -7 4
-12 2 -12 -4 0 -6 -18 -35 -40 -65 -22 -30 -41 -58 -41 -62 -3 -20 -12 -32
-20 -27 -5 3 -6 -2 -3 -11 3 -8 -1 -33 -10 -55 -9 -22 -16 -43 -15 -46 0 -3
-3 -9 -7 -12 -4 -4 -4 -1 0 6 4 6 3 12 -1 12 -5 0 -14 10 -22 23 l-14 22 24
-19 c14 -12 11 -7 -6 11 -47 48 -64 71 -58 77 4 3 1 6 -6 6 -6 0 -11 8 -9 17
2 10 -2 18 -9 18 -12 0 -59 45 -48 45 9 0 -16 24 -40 39 -16 10 -17 11 -2 7
11 -3 15 -2 12 4 -3 6 -13 10 -21 10 -8 0 -17 7 -20 15 -3 8 -15 17 -26 21
-16 5 -18 8 -7 15 10 6 8 9 -8 9 -13 0 -28 9 -35 20 -7 11 -18 20 -25 20 -7 0
-16 6 -20 14 -4 8 -12 15 -18 16 -5 1 -9 6 -8 11 2 4 -5 5 -14 2 -11 -4 -14
-3 -9 5 5 8 0 12 -13 12 -12 0 -21 5 -21 10 0 6 -6 10 -13 10 -7 0 -22 7 -33
15 -14 11 -15 14 -3 9 10 -3 20 -1 23 4 3 5 -9 8 -27 6 -20 -3 -41 2 -53 12
-10 8 -13 12 -5 8 9 -4 12 -3 7 4 -4 6 -13 9 -21 6 -21 -8 -41 6 -24 18 9 5 4
6 -14 2 -22 -5 -32 -2 -43 15 -8 11 -20 21 -26 21 -7 0 -3 -7 8 -15 18 -14 18
-14 -3 -8 -13 3 -23 8 -23 12 0 4 -10 7 -22 8 -11 1 -24 6 -27 10 -3 5 -22 10
-41 12 -19 1 -39 7 -44 12 -6 5 -24 9 -40 9 -17 0 -44 7 -59 15 -16 8 -25 9
-21 3 5 -8 1 -9 -10 -5 -10 4 -22 7 -27 7 -6 0 -7 5 -4 10 3 6 4 10 1 10 -3 0
-7 -4 -10 -9z"/>
<path d="M715 2241 c-3 -5 -2 -12 3 -15 5 -3 9 1 9 9 0 17 -3 19 -12 6z"/>
<path d="M1996 2117 c3 -10 9 -15 12 -12 3 3 0 11 -7 18 -10 9 -11 8 -5 -6z"/>
<path d="M1890 2080 c0 -5 5 -10 11 -10 5 0 7 5 4 10 -3 6 -8 10 -11 10 -2 0
-4 -4 -4 -10z"/>
<path d="M1820 2035 c-11 -13 -10 -14 4 -9 9 3 16 10 16 15 0 13 -6 11 -20 -6z"/>
<path d="M1756 1998 c3 -5 10 -6 15 -3 13 9 11 12 -6 12 -8 0 -12 -4 -9 -9z"/>
<path d="M2175 2000 c3 -5 8 -10 11 -10 2 0 4 5 4 10 0 6 -5 10 -11 10 -5 0
-7 -4 -4 -10z"/>
<path d="M1710 1959 c0 -5 5 -7 10 -4 6 3 10 8 10 11 0 2 -4 4 -10 4 -5 0 -10
-5 -10 -11z"/>
<path d="M2157 1883 c-10 -9 -9 -23 1 -23 5 0 9 7 9 15 0 17 -1 18 -10 8z"/>
<path d="M1597 1853 c-10 -10 -8 -23 4 -23 5 0 8 4 5 9 -4 5 0 12 6 14 7 3 8
6 2 6 -6 1 -14 -2 -17 -6z"/>
<path d="M1525 1702 c-10 -7 -18 -32 -10 -32 2 0 9 9 15 20 12 22 11 24 -5 12z"/>
<path d="M516 767 c3 -10 9 -15 12 -12 3 3 0 11 -7 18 -10 9 -11 8 -5 -6z"/>
<path d="M1995 601 c-3 -5 -2 -12 3 -15 5 -3 9 1 9 9 0 17 -3 19 -12 6z"/>
<path d="M1867 466 c-4 -10 -1 -13 8 -9 8 3 12 9 9 14 -7 12 -11 11 -17 -5z"/>
<path d="M1830 449 c0 -5 5 -7 10 -4 6 3 10 8 10 11 0 2 -4 4 -10 4 -5 0 -10
-5 -10 -11z"/>
<path d="M1315 320 c-3 -6 1 -7 9 -4 18 7 21 14 7 14 -6 0 -13 -4 -16 -10z"/>
</g>
</svg>
