<svg id="Layer_1" data-name="Layer 1" xmlns="http://www.w3.org/2000/svg" viewBox="0 0 767.54 328.23"><defs><style>.cls-1{fill:#f2d664;}.cls-2{fill:#fff;}</style></defs><title>tulipHeroLogo</title><g id="tulip"><path class="cls-1" d="M52.67,63V58.38a7.66,7.66,0,0,1,7.66-7.66H182.5a7.66,7.66,0,0,1,7.66,7.66V63a7.66,7.66,0,0,1-7.66,7.66H141.87a7.66,7.66,0,0,0-7.66,7.66V246.36a7.66,7.66,0,0,1-7.66,7.66H116.28a7.66,7.66,0,0,1-7.66-7.66V78.28A7.66,7.66,0,0,0,101,70.62H60.33A7.66,7.66,0,0,1,52.67,63Z" transform="translate(-52.67 -36.55)"/><path class="cls-1" d="M460.71,50.72h13.79a5.64,5.64,0,0,1,5.64,5.64V228.75a5.64,5.64,0,0,0,5.64,5.64H571a5.64,5.64,0,0,1,5.64,5.64v8.34A5.64,5.64,0,0,1,571,254H460.71a5.64,5.64,0,0,1-5.64-5.64v-192A5.64,5.64,0,0,1,460.71,50.72Z" transform="translate(-52.67 -36.55)"/><path class="cls-1" d="M618.49,50.72h13.79a5.64,5.64,0,0,1,5.64,5.64v192a5.64,5.64,0,0,1-5.64,5.64H618.49a5.64,5.64,0,0,1-5.64-5.64v-192A5.64,5.64,0,0,1,618.49,50.72Z" transform="translate(-52.67 -36.55)"/><path class="cls-1" d="M809.33,71.38a51.18,51.18,0,0,0-28-17.62q-12-3-46.24-3h-34.2a5.65,5.65,0,0,0-5.65,5.65v192a5.65,5.65,0,0,0,5.65,5.65h8.71a5.65,5.65,0,0,0,5.65-5.65V165.13a5.65,5.65,0,0,1,5.65-5.65h8.63q37.25,0,50.86-3.32,18.64-4.56,29.24-17.76t10.6-33.51Q820.21,84.73,809.33,71.38ZM794.1,123.93a30.85,30.85,0,0,1-15,12.28Q769.63,140,749.09,140l-24.17-.29a9.81,9.81,0,0,1-9.69-9.81V80.43a9.8,9.8,0,0,1,9.81-9.8h25.54q20.25,0,29.16,3.58A30.12,30.12,0,0,1,794.1,86.27,33.91,33.91,0,0,1,799.54,105,34.33,34.33,0,0,1,794.1,123.93Z" transform="translate(-52.67 -36.55)"/><g id="shape_tulip" data-name="shape/tulip"><path id="_6" data-name="6" class="cls-1" d="M380.43,241.59C375.24,193.18,340,124.9,334.68,114a3.32,3.32,0,0,1-.29-2c7.84-45.64,50.44-57.47,67-60.36A5.61,5.61,0,0,1,408,57.15c0,23.49-.12,104-.12,116.51,0,10.26,4.79,45-26.24,68.44A.74.74,0,0,1,380.43,241.59Z" transform="translate(-52.67 -36.55)"/><path id="_6-2" data-name="6" class="cls-1" d="M371.43,247.44a3.43,3.43,0,0,1-1.47,3.09c-14.62,10.25-40.49,17.36-67.37,17.49C222.1,268.41,200,224.6,200,147.13V42.19a5.64,5.64,0,0,1,6.16-5.62c21,2,84,15.36,118.58,79.38C362.7,186.13,370.42,235.67,371.43,247.44Z" transform="translate(-52.67 -36.55)"/></g></g><path class="cls-2" d="M275.62,312.41a10.85,10.85,0,0,0-2.7,3.69,33.23,33.23,0,0,0-1.62,8.12,75.84,75.84,0,0,1-1.77,10.14,22,22,0,0,1-3.7,7.63,18.42,18.42,0,0,1-6.67,5.54,19.19,19.19,0,0,1-8.68,2,10,10,0,0,1-6.34-1.75,6,6,0,0,1-2.2-5,8.42,8.42,0,0,1,.19-1.93,15.19,15.19,0,0,1,3.49-2.35,8.13,8.13,0,0,1,2.71-1q1.12,0,1.12,1.71,0,.28-.25,1.95t-.25,2q0,3.83,3.3,3.83T258,342.7q2.46-4.34,3.54-13t3-11.92a13.89,13.89,0,0,1,4.84-5A10,10,0,0,1,274,311Q274.78,311,275.62,312.41Zm-1,12.06a5.2,5.2,0,0,0,4.86-2.63,11.26,11.26,0,0,0,1.53-5.75,8.8,8.8,0,0,0-2.85-6.87,11,11,0,0,0-7.68-2.57,19.35,19.35,0,0,0-11.65,3.75q-5.17,3.75-5.17,8.3,0,2.71,2.93,4,.75.31.75.59v1q0,.69-2.48,1.71a11.5,11.5,0,0,1-3.26,1q-1.21,0-2.46-2a7.58,7.58,0,0,1-1.25-4.1,13.08,13.08,0,0,1,3-7.76,21.18,21.18,0,0,1,8.57-6.51,31,31,0,0,1,12.69-2.46q7.66,0,12.41,3.21t4.75,8.22q0,7.48-10.59,10.22,8.32,2.59,8.32,10.19a12.7,12.7,0,0,1-4.16,9.52,13.91,13.91,0,0,1-10,4,8.17,8.17,0,0,1-4.27-1A2.94,2.94,0,0,1,267,346a5.33,5.33,0,0,1,1.09-2.62q1.09-1.65,2-1.65,1.28,0,1.53,3,.19,2.37,1.46,2.37,2.09,0,3.69-4.64a28.44,28.44,0,0,0,1.6-9.35q0-5.7-4.08-6.32Z" transform="translate(-52.67 -36.55)"/><path class="cls-2" d="M323.41,341.88a65.49,65.49,0,0,1-7.13,6.17,7.47,7.47,0,0,1-4.11,1.43q-4.92,0-4.64-8.69a32.14,32.14,0,0,1-5.75,6.57,8.59,8.59,0,0,1-5.44,2.12,5.66,5.66,0,0,1-4.66-2.57,10.26,10.26,0,0,1-1.92-6.31,16.92,16.92,0,0,1,2.57-8.91,21.13,21.13,0,0,1,6.59-6.85q4-2.62,7.1-2.62a5.51,5.51,0,0,1,5.45,3.58l6.37-3.52h1.75l-2.75,9.13q-2.12,6.88-2.12,9.44t1.9,2.68a4.25,4.25,0,0,0,2.68-1.29q1.46-1.29,4.11-3.94Zm-22.8,1.71q3.11,0,5.87-5.31a21.49,21.49,0,0,0,2.76-9.8,4.28,4.28,0,0,0-.78-2.73,2.53,2.53,0,0,0-2.09-1q-3.12,0-5.9,5.3a21.17,21.17,0,0,0-2.79,9.75,4.26,4.26,0,0,0,.83,2.73A2.57,2.57,0,0,0,300.6,343.59Z" transform="translate(-52.67 -36.55)"/><path class="cls-2" d="M354,341.82q-7.07,7.73-11.75,7.73a5,5,0,0,1-3.77-1.57,5.35,5.35,0,0,1-1.53-3.88,21.26,21.26,0,0,1,.37-3.27q.37-2.18.37-2.46,0-1.43-1.62-1.48t-1.62-1.26a2,2,0,0,1,.45-1.48,2.54,2.54,0,0,1,1.7-.42,8.58,8.58,0,0,0,5.11-1.42,3.9,3.9,0,0,0,1.68-3.13,2.7,2.7,0,0,0-.92-2.1,3.39,3.39,0,0,0-2.35-.83,5.92,5.92,0,0,0-1.5.19,6.06,6.06,0,0,0-1.43.56,11.45,11.45,0,0,0-1.5,1,19.14,19.14,0,0,0-1.59,1.59q-.81.9-1.78,2.15-.5.65-1.25,6.14-.37,2.83-.5,5.23-.13,2.24,0,5.08l-7.07,1.18a35.09,35.09,0,0,1-.4-5.79,62.42,62.42,0,0,1,2.52-17.85,69.31,69.31,0,0,1,8.26-17.48q4.45-1.81,7.69-2.82a29.28,29.28,0,0,1,3.61-1q.75,0,1.46,1.5a7.19,7.19,0,0,1,.72,3.15,12.57,12.57,0,0,1-1.84,6.06,55.31,55.31,0,0,1-5.7,7.93,16.22,16.22,0,0,1,4.39-.78,7.32,7.32,0,0,1,4.74,1.48,4.62,4.62,0,0,1,1.84,3.75q0,5.17-9.31,7.6,3.65.84,3.65,4.27l-.19,2.8q0,1.9,1.78,1.9a4.89,4.89,0,0,0,2.83-1.21,32.83,32.83,0,0,0,4.46-4.64Zm-20.44-15,2.06-2.27q9.13-10.28,9.13-14.49,0-1.93-1.68-1.93-1.93,0-4.44,4.55T333.53,326.8Z" transform="translate(-52.67 -36.55)"/><path class="cls-2" d="M377.24,341.88a38.45,38.45,0,0,1-7.1,5.75,13.44,13.44,0,0,1-6.95,1.85,9,9,0,0,1-6.84-2.71,9.87,9.87,0,0,1-2.6-7.13,17.9,17.9,0,0,1,4.58-11.95q4.58-5.34,10.16-5.34a6.89,6.89,0,0,1,4.64,1.5,4.92,4.92,0,0,1,1.74,3.93q0,6.45-13.71,10.47,1.25,6.07,6.51,6.07a7.59,7.59,0,0,0,3.93-1.11,34,34,0,0,0,5.64-4.91Zm-16.32-5.76q8-2.24,8-8.29,0-3-2.18-3T362.78,328A15.74,15.74,0,0,0,360.92,336.12Z" transform="translate(-52.67 -36.55)"/><path class="cls-2" d="M400.54,341.88q-7.82,7.66-12.06,7.66a4,4,0,0,1-3.21-1.6,6.08,6.08,0,0,1-1.31-4q0-4.39,4.7-11.78a17.37,17.37,0,0,1-5,1.65,35.84,35.84,0,0,1-6.36,8h-.72v-2.8a40.76,40.76,0,0,0,4.39-5.42q-2.68-1.18-2.68-3.52A10,10,0,0,1,379.9,325a5,5,0,0,1,4.5-2.73,2.18,2.18,0,0,1,2.43,2.49,17.18,17.18,0,0,1-1.4,5.61q5.17-.56,9-7.91l2.84-.12-2.9,8q-1.81,5-2.34,6.87a11.72,11.72,0,0,0-.53,3.22,3.31,3.31,0,0,0,.61,2.09,2,2,0,0,0,1.63.78,3.56,3.56,0,0,0,2.15-.76q1-.76,4.61-4.22Z" transform="translate(-52.67 -36.55)"/><path class="cls-2" d="M433.81,341.88q-4,3.83-12.64,7.85-2.9,8.23-6.51,11.64a10.94,10.94,0,0,1-7.54,3.41,4.29,4.29,0,0,1-3.19-1.21,4.41,4.41,0,0,1-1.2-3.24q0-6.14,11.25-11.12l1.9-6.7q-5.89,6.57-10.34,6.57a4.63,4.63,0,0,1-3.88-2,8.48,8.48,0,0,1-1.48-5.23,28.48,28.48,0,0,1,2.05-10.09l3-7.91,9-1.58-3.88,9.25q-2.67,6.69-2.66,10.09,0,2.81,1.9,2.81t4.41-3.12a27.63,27.63,0,0,0,4.16-7.66l3.55-9.78,8.5-1.59-8.1,24.36a35.11,35.11,0,0,0,11.69-8.35Zm-20.75,10.41a18.9,18.9,0,0,0-5.9,3.85,6.16,6.16,0,0,0-2.07,4.19q0,2.09,1.78,2.09Q410.32,362.41,413.07,352.28Z" transform="translate(-52.67 -36.55)"/><path class="cls-2" d="M467.68,323.62V321a18,18,0,0,1,3.64-11.54,11.15,11.15,0,0,1,9.07-4.59,9.6,9.6,0,0,1,5.16,1.34q2.17,1.34,2.17,3.12,0,1-2,2.55a7.67,7.67,0,0,1-2.49,1.53q-1,0-1.17-1.82a6.45,6.45,0,0,0-1-3,2.47,2.47,0,0,0-2.15-1.14q-1.68,0-2.65,2.18a15.29,15.29,0,0,0-1,6,57.68,57.68,0,0,0,2,14q2,7.85,4,11.18t4.3,3.33a5,5,0,0,0,4-2.18q.65-.65.9-.65a1.28,1.28,0,0,1,.87.5,1.39,1.39,0,0,1,.47.78q0,.93-3.15,3.86a9.88,9.88,0,0,1-6.85,2.93,8,8,0,0,1-5-1.68,17.64,17.64,0,0,1-4.25-5.23,38.91,38.91,0,0,1-6.84,5.23,12.73,12.73,0,0,1-6.37,1.68,8.25,8.25,0,0,1-6.07-2.35,8.13,8.13,0,0,1-2.37-6Q450.82,331.5,467.68,323.62Zm3.77,16.67a57.51,57.51,0,0,1-3.71-14.17,20.46,20.46,0,0,0-6.68,4.52,8.62,8.62,0,0,0-2.13,6,9.24,9.24,0,0,0,1.7,5.56,4.84,4.84,0,0,0,3.94,2.35,5.52,5.52,0,0,0,2.76-.84A26,26,0,0,0,471.45,340.29Z" transform="translate(-52.67 -36.55)"/><path class="cls-2" d="M544.81,341.91A23.89,23.89,0,0,1,527,349.54a16.78,16.78,0,0,1-12.26-4.69,16.13,16.13,0,0,1-4.78-12,30.65,30.65,0,0,1,12.51-24.49q5.59-4,11-4a10.26,10.26,0,0,1,7.37,2.71,9.28,9.28,0,0,1,2.85,7,14.77,14.77,0,0,1-3.44,9.77,10.24,10.24,0,0,1-8.05,4.13,6.18,6.18,0,0,1-4-1.25,3.93,3.93,0,0,1-1.56-3.21,4.48,4.48,0,0,1,1.34-3.12,3,3,0,0,0,2.74,1.84q2.49,0,4.63-3.12a11.82,11.82,0,0,0,2.13-6.82,6.48,6.48,0,0,0-1.2-4.11,3.86,3.86,0,0,0-3.19-1.53q-2.9,0-6.18,3.61a29.43,29.43,0,0,0-5.48,9.28,29.86,29.86,0,0,0-2.2,10.78,15.53,15.53,0,0,0,3.69,10.69,12,12,0,0,0,9.39,4.17,12.77,12.77,0,0,0,6.51-1.67,24.79,24.79,0,0,0,6-5.24Z" transform="translate(-52.67 -36.55)"/><path class="cls-2" d="M578.05,341.88a65.55,65.55,0,0,1-7.13,6.17,7.47,7.47,0,0,1-4.11,1.43q-4.92,0-4.64-8.69a32.11,32.11,0,0,1-5.75,6.57,8.6,8.6,0,0,1-5.44,2.12,5.66,5.66,0,0,1-4.66-2.57,10.26,10.26,0,0,1-1.92-6.31,16.92,16.92,0,0,1,2.57-8.91,21.12,21.12,0,0,1,6.59-6.85q4-2.62,7.1-2.62a5.51,5.51,0,0,1,5.45,3.58l6.37-3.52h1.75l-2.75,9.13q-2.12,6.88-2.12,9.44t1.9,2.68a4.25,4.25,0,0,0,2.68-1.29q1.46-1.29,4.11-3.94Zm-22.8,1.71q3.12,0,5.87-5.31a21.49,21.49,0,0,0,2.76-9.8,4.28,4.28,0,0,0-.78-2.73,2.53,2.53,0,0,0-2.09-1q-3.12,0-5.9,5.3a21.17,21.17,0,0,0-2.79,9.75,4.26,4.26,0,0,0,.83,2.73A2.56,2.56,0,0,0,555.25,343.59Z" transform="translate(-52.67 -36.55)"/><path class="cls-2" d="M603.32,341.88a30,30,0,0,1-6.41,5.62,11,11,0,0,1-5.66,2,8.76,8.76,0,0,1-3.24-.9q-1.31,6.85-2.32,14.79-3.24.44-7.8,1.34,1-8.54,3.46-22.15a24.87,24.87,0,0,1-1.21-3l-2.09,2.31h-.72v-2.8l5.94-6.16q1.69-8.36,2.75-12.1a73.31,73.31,0,0,1,3-8.27,41.71,41.71,0,0,1,2.4-5.2,5,5,0,0,1,2.42-1.28q1.91-.61,4.1-1.15t2.34-.55q1.18,0,1.93,1.54a9.37,9.37,0,0,1,.75,4.06,16.78,16.78,0,0,1-2.3,8.4q-2.3,4-8.7,10l-2.62,13q1.52,3.27,4.57,3.27,4.35,0,9.45-6.32Zm-10.46-17.76a26.34,26.34,0,0,0,5.71-6.84,13.88,13.88,0,0,0,2.07-6.75,4.29,4.29,0,0,0-.48-2.15,1.39,1.39,0,0,0-1.2-.84q-1.37,0-2.78,3.58A89.32,89.32,0,0,0,592.85,324.12Z" transform="translate(-52.67 -36.55)"/><path class="cls-2" d="M626.59,341.88a38.48,38.48,0,0,1-7.1,5.75,13.44,13.44,0,0,1-6.95,1.85,9,9,0,0,1-6.84-2.71,9.87,9.87,0,0,1-2.6-7.13,17.9,17.9,0,0,1,4.58-11.95q4.58-5.34,10.16-5.34a6.9,6.9,0,0,1,4.64,1.5,4.92,4.92,0,0,1,1.74,3.93q0,6.45-13.71,10.47,1.25,6.07,6.51,6.07a7.6,7.6,0,0,0,3.93-1.11,34.06,34.06,0,0,0,5.64-4.91Zm-16.32-5.76q8-2.24,8-8.29,0-3-2.18-3T612.13,328A15.74,15.74,0,0,0,610.26,336.12Z" transform="translate(-52.67 -36.55)"/></svg>